<svg xmlns="http://www.w3.org/2000/svg" xmlns:xlink="http://www.w3.org/1999/xlink" version="1.1" width="256" height="256" viewBox="0 0 256 256" xml:space="preserve">

<defs>
</defs>
<g style="stroke: none; stroke-width: 0; stroke-dasharray: none; stroke-linecap: butt; stroke-linejoin: miter; stroke-miterlimit: 10; fill: none; fill-rule: nonzero; opacity: 1;" transform="translate(1.4065934065934016 1.4065934065934016) scale(2.81 2.81)" >
	<path d="M 87 30.431 H 3 c -1.657 0 -3 -1.343 -3 -3 v -8.871 C 0 12.486 4.942 7.544 11.016 7.544 h 67.967 C 85.058 7.544 90 12.486 90 18.561 v 8.871 C 90 29.088 88.657 30.431 87 30.431 z M 6 24.431 h 78 v -5.871 c 0 -2.766 -2.25 -5.016 -5.017 -5.016 H 11.016 C 8.25 13.544 6 15.794 6 18.561 V 24.431 z" style="stroke: none; stroke-width: 1; stroke-dasharray: none; stroke-linecap: butt; stroke-linejoin: miter; stroke-miterlimit: 10; fill: rgb(0,0,0); fill-rule: nonzero; opacity: 1;" transform=" matrix(1 0 0 1 0 0) " stroke-linecap="round" />
	<path d="M 78.983 87.716 H 11.016 C 4.942 87.716 0 82.774 0 76.7 V 27.431 c 0 -1.657 1.343 -3 3 -3 h 84 c 1.657 0 3 1.343 3 3 V 76.7 C 90 82.774 85.058 87.716 78.983 87.716 z M 6 30.431 V 76.7 c 0 2.766 2.25 5.016 5.016 5.016 h 67.967 c 2.767 0 5.017 -2.25 5.017 -5.016 V 30.431 H 6 z" style="stroke: none; stroke-width: 1; stroke-dasharray: none; stroke-linecap: butt; stroke-linejoin: miter; stroke-miterlimit: 10; fill: rgb(0,0,0); fill-rule: nonzero; opacity: 1;" transform=" matrix(1 0 0 1 0 0) " stroke-linecap="round" />
	<path d="M 24.477 19.219 c -1.657 0 -3 -1.343 -3 -3 V 5.284 c 0 -1.657 1.343 -3 3 -3 s 3 1.343 3 3 v 10.936 C 27.477 17.876 26.134 19.219 24.477 19.219 z" style="stroke: none; stroke-width: 1; stroke-dasharray: none; stroke-linecap: butt; stroke-linejoin: miter; stroke-miterlimit: 10; fill: rgb(0,0,0); fill-rule: nonzero; opacity: 1;" transform=" matrix(1 0 0 1 0 0) " stroke-linecap="round" />
	<path d="M 65.522 19.219 c -1.657 0 -3 -1.343 -3 -3 V 5.284 c 0 -1.657 1.343 -3 3 -3 s 3 1.343 3 3 v 10.936 C 68.522 17.876 67.18 19.219 65.522 19.219 z" style="stroke: none; stroke-width: 1; stroke-dasharray: none; stroke-linecap: butt; stroke-linejoin: miter; stroke-miterlimit: 10; fill: rgb(0,0,0); fill-rule: nonzero; opacity: 1;" transform=" matrix(1 0 0 1 0 0) " stroke-linecap="round" />
	<path d="M 40.432 71.464 c -0.879 0 -1.713 -0.386 -2.283 -1.054 l -9.941 -11.665 c -1.075 -1.262 -0.924 -3.155 0.337 -4.229 c 1.26 -1.076 3.155 -0.925 4.229 0.337 l 7.658 8.986 l 18.704 -21.947 c 1.076 -1.262 2.968 -1.411 4.229 -0.337 c 1.261 1.075 1.412 2.968 0.337 4.229 L 42.715 70.41 C 42.145 71.078 41.311 71.464 40.432 71.464 z" style="stroke: none; stroke-width: 1; stroke-dasharray: none; stroke-linecap: butt; stroke-linejoin: miter; stroke-miterlimit: 10; fill: rgb(0,0,0); fill-rule: nonzero; opacity: 1;" transform=" matrix(1 0 0 1 0 0) " stroke-linecap="round" />
</g>
</svg>