<!-- icon666.com - MILLIONS vector ICONS FREE --><svg id="Glyph" enable-background="new 0 0 64 64" viewBox="0 0 64 64" xmlns="http://www.w3.org/2000/svg"><path d="m57 41c0-3.31-2.69-6-6-6s-6 2.69-6 6c0 1.52.56 2.9 1.49 3.95 1.42-.23 2.51-1.47 2.51-2.95h2c0 1.9-1.06 3.55-2.62 4.4.79.38 1.68.6 2.62.6 3.31 0 6-2.69 6-6z"></path><path d="m3 57v5h20v-5c0-5.523-4.477-10-10-10s-10 4.477-10 10z"></path><path d="m13 35c-3.314 0-6 2.686-6 6s2.686 6 6 6 6-2.686 6-6h4v-2h-4.349c-.824-2.329-3.04-4-5.651-4z"></path><path d="m12 13h2v2h-2z"></path><path d="m18 13h2v2h-2z"></path><path d="m16 19c-1.103 0-2-.897-2-2h-2c0 2.206 1.794 4 4 4s4-1.794 4-4h-2c0 1.103-.897 2-2 2z"></path><path d="m51 26v-20c0-2.209-1.791-4-4-4h-41c-2.209 0-4 1.791-4 4v20c0 2.209 1.791 4 4 4h15v5l6-5h20c2.209 0 4-1.791 4-4zm-35-2c-4.418 0-8-3.582-8-8s3.582-8 8-8 8 3.582 8 8-3.582 8-8 8zm27.863-8.122-1.373 1.424-5.49 5.698-5.49-5.698-1.373-1.424c-1.516-1.573-1.516-4.124 0-5.698 1.516-1.573 3.974-1.573 5.49 0l1.373 1.424 1.373-1.424c1.516-1.573 3.974-1.573 5.49 0s1.516 4.124 0 5.698z"></path><circle cx="56.5" cy="34.5" r="2.5"></circle><path d="m51 47c-5.523 0-10 4.477-10 10v5h20v-5c0-5.523-4.477-10-10-10zm1 9h-2v-2h2zm0-4h-2v-2h2z"></path></svg>